<?xml version="1.0" encoding="UTF-8"?><svg id="Livello_2" xmlns="http://www.w3.org/2000/svg" viewBox="0 0 36.41 31.2"><defs><style>.cls-1{fill:#c30540;}.cls-1,.cls-2{stroke-width:0px;}.cls-2{fill:#fe176e;}</style></defs><g id="Livello_1-2"><path class="cls-1" d="M36.36,9.96c-1.19,6.43-2.38,12.85-3.57,19.28-.26,1.4-.96,1.96-2.39,1.96H2.46C.84,31.2.01,30.41.01,28.8c-.01-8.79-.01-17.58-.01-26.37C0,.8.81.03,2.43.03,4.83.03,7.23.08,9.62,0c1.09-.03,1.87.28,2.34,1.25.61,1.24,1.53,1.66,2.96,1.63,5.39-.1,10.79-.04,16.18-.04,2.51,0,3.17.62,3.16,3.09,0,.75.13,1.21.92,1.54,1.04.43,1.38,1.36,1.18,2.48Z"/><path class="cls-2" d="M2.83,29.76c-1.04-.02-1.37-.51-1.14-1.78.33-1.84.73-3.66,1.08-5.49.76-4.06,1.51-8.12,2.25-12.18.17-.92.47-1.46,1.6-1.46,8.9.05,17.8.02,26.71.03,1.47,0,1.57.15,1.27,1.61-.98,4.86-1.73,9.76-2.51,14.65-.21,1.33-.62,2.62-.92,3.94-.1.45-.32.64-.77.62l-27.57.06Z"/><path class="cls-2" d="M1.66,19.42c-.27.04.08-6.64,0-9.95-.06-2.27.04-4.55-.03-6.83-.03-.98.32-1.23,1.24-1.2,2.07.06,4.15.07,6.23,0,.93-.03,1.56.27,1.9,1.1.73,1.77,2.26,1.96,3.84,1.9,5.59-.21,11.17-.02,16.76-.1,1.15-.02.97.78,1.01,1.48.04.71,0,1.22-.98,1.19-3.16-.11-6.33-.03-9.49.05-3.14.07-6.28-.15-9.42.03-2.19.12-4.38.09-6.57.13-1.47.02-2.19.55-2.48,2.05-.48,2.41-.86,4.84-1.3,7.26-.17.97-.54,2.9-.71,2.9h0Z"/></g></svg>