<?xml version="1.0" encoding="UTF-8"?><svg id="Livello_2" xmlns="http://www.w3.org/2000/svg" viewBox="0 0 260.42 51.84"><defs><style>.cls-1{fill:#fff;stroke-width:0px;}</style></defs><g id="Livello_1-2"><path class="cls-1" d="M2.99,48.6c-1.99-2.16-2.99-5.21-2.99-9.14V12.38c0-3.94,1-6.98,2.99-9.14C4.98,1.08,7.87,0,11.66,0s6.68,1.08,8.68,3.24c1.99,2.16,2.99,5.21,2.99,9.14v5.33h-7.49v-5.83c0-3.12-1.32-4.68-3.96-4.68s-3.96,1.56-3.96,4.68v28.15c0,3.07,1.32,4.61,3.96,4.61s3.96-1.54,3.96-4.61v-7.7h7.49v7.13c0,3.94-1,6.98-2.99,9.14-1.99,2.16-4.88,3.24-8.68,3.24s-6.68-1.08-8.68-3.24Z"/><path class="cls-1" d="M27.86,48.53c-2.06-2.21-3.1-5.33-3.1-9.36V12.67c0-4.03,1.03-7.15,3.1-9.36,2.06-2.21,5.04-3.31,8.93-3.31s6.86,1.1,8.93,3.31c2.06,2.21,3.1,5.33,3.1,9.36v26.5c0,4.03-1.03,7.15-3.1,9.36-2.06,2.21-5.04,3.31-8.93,3.31s-6.86-1.1-8.93-3.31ZM40.9,39.67V12.17c0-3.31-1.37-4.97-4.1-4.97s-4.1,1.66-4.1,4.97v27.5c0,3.31,1.37,4.97,4.1,4.97s4.1-1.66,4.1-4.97Z"/><path class="cls-1" d="M51.26.72h11.3l5.04,36.07h.14L72.79.72h11.3v50.4h-7.49V12.96h-.14l-5.76,38.16h-6.62l-5.76-38.16h-.14v38.16h-6.91V.72Z"/><path class="cls-1" d="M87.12.72h7.92v50.4h-7.92V.72Z"/><path class="cls-1" d="M98.06.72h9.94l7.7,30.17h.14V.72h7.06v50.4h-8.14l-9.5-36.79h-.14v36.79h-7.06V.72Z"/><path class="cls-1" d="M128.37,48.56c-2.02-2.18-3.02-5.32-3.02-9.4V12.67c0-4.08,1.01-7.21,3.02-9.4,2.02-2.18,4.94-3.28,8.78-3.28s6.77,1.09,8.78,3.28c2.02,2.19,3.02,5.32,3.02,9.4v4.32h-7.49v-4.82c0-3.31-1.37-4.97-4.1-4.97s-4.1,1.66-4.1,4.97v27.58c0,3.26,1.37,4.9,4.1,4.9s4.1-1.63,4.1-4.9v-9.86h-3.96v-7.2h11.45v16.49c0,4.08-1.01,7.21-3.02,9.4-2.02,2.18-4.94,3.28-8.78,3.28s-6.77-1.09-8.78-3.28Z"/><path class="cls-1" d="M161.42,48.56c-1.97-2.18-2.95-5.32-2.95-9.4v-2.88h7.49v3.46c0,3.26,1.37,4.9,4.1,4.9,1.34,0,2.36-.4,3.06-1.19.7-.79,1.04-2.08,1.04-3.85,0-2.11-.48-3.97-1.44-5.58-.96-1.61-2.74-3.54-5.33-5.8-3.26-2.88-5.54-5.48-6.84-7.81-1.3-2.33-1.94-4.96-1.94-7.88,0-3.98,1.01-7.07,3.02-9.25,2.02-2.18,4.94-3.28,8.78-3.28s6.66,1.09,8.6,3.28c1.94,2.19,2.92,5.32,2.92,9.4v2.09h-7.49v-2.59c0-1.73-.34-2.99-1.01-3.78s-1.66-1.19-2.95-1.19c-2.64,0-3.96,1.61-3.96,4.82,0,1.82.49,3.53,1.48,5.11.98,1.58,2.77,3.5,5.36,5.76,3.31,2.88,5.59,5.5,6.84,7.85,1.25,2.35,1.87,5.11,1.87,8.28,0,4.13-1.02,7.3-3.06,9.5-2.04,2.21-5,3.31-8.89,3.31s-6.74-1.09-8.71-3.28Z"/><path class="cls-1" d="M186.26,48.53c-2.06-2.21-3.1-5.33-3.1-9.36V12.67c0-4.03,1.03-7.15,3.1-9.36,2.06-2.21,5.04-3.31,8.93-3.31s6.86,1.1,8.93,3.31c2.06,2.21,3.1,5.33,3.1,9.36v26.5c0,4.03-1.03,7.15-3.1,9.36-2.06,2.21-5.04,3.31-8.93,3.31s-6.87-1.1-8.93-3.31ZM199.29,39.67V12.17c0-3.31-1.37-4.97-4.1-4.97s-4.1,1.66-4.1,4.97v27.5c0,3.31,1.37,4.97,4.1,4.97s4.1-1.66,4.1-4.97Z"/><path class="cls-1" d="M212.18,48.53c-2.06-2.21-3.1-5.33-3.1-9.36V12.67c0-4.03,1.03-7.15,3.1-9.36,2.06-2.21,5.04-3.31,8.93-3.31s6.86,1.1,8.93,3.31c2.06,2.21,3.1,5.33,3.1,9.36v26.5c0,4.03-1.03,7.15-3.1,9.36-2.06,2.21-5.04,3.31-8.93,3.31s-6.87-1.1-8.93-3.31ZM225.21,39.67V12.17c0-3.31-1.37-4.97-4.1-4.97s-4.1,1.66-4.1,4.97v27.5c0,3.31,1.37,4.97,4.1,4.97s4.1-1.66,4.1-4.97Z"/><path class="cls-1" d="M235.58.72h9.94l7.7,30.17h.14V.72h7.06v50.4h-8.14l-9.5-36.79h-.14v36.79h-7.06V.72Z"/></g></svg>