<?xml version="1.0" encoding="UTF-8"?><svg id="Livello_2" xmlns="http://www.w3.org/2000/svg" viewBox="0 0 191 82.14"><defs><style>.cls-1{fill:#5b5b5b;stroke-width:0px;}</style></defs><g id="Livello_1-2"><polygon class="cls-1" points="10.29 34.29 10.29 30.86 6.86 30.86 6.86 34.29 3.43 34.29 0 34.29 0 37.71 3.43 37.71 6.86 37.71 6.86 41.14 10.29 41.14 13.71 41.14 13.71 37.71 17.14 37.71 17.14 34.29 13.71 34.29 10.29 34.29"/><polygon class="cls-1" points="30.86 37.71 34.29 37.71 34.29 34.29 30.86 34.29 30.86 30.86 30.86 27.43 30.86 24 30.86 20.57 34.29 20.57 34.29 17.14 30.86 17.14 30.86 13.71 30.86 10.29 30.86 6.86 34.29 6.86 37.71 6.86 37.71 10.29 37.71 13.71 37.71 17.14 37.71 20.57 37.71 24 37.71 27.43 37.71 30.86 37.71 34.29 37.71 37.71 41.14 37.71 41.14 41.14 44.57 41.14 44.57 37.71 47.83 37.71 48 37.71 51.26 37.71 51.26 41.14 54.69 41.14 58.11 41.14 58.11 37.71 61.54 37.71 64.97 37.71 64.97 34.29 61.54 34.29 58.11 34.29 58.11 30.86 58.11 27.43 61.54 27.43 64.97 27.43 64.97 24 61.54 24 58.11 24 58.11 20.57 58.11 17.14 54.69 17.14 54.69 20.57 51.26 20.57 51.26 24 51.26 27.43 51.26 30.86 51.26 34.29 48 34.29 47.83 34.29 44.57 34.29 44.57 30.86 44.57 27.43 44.57 24 44.57 20.57 44.57 17.14 44.57 13.71 44.57 10.29 44.57 6.86 48 6.86 48 3.43 44.57 3.43 41.14 3.43 41.14 0 37.71 0 34.29 0 34.29 3.43 30.86 3.43 27.43 3.43 27.43 0 24 0 20.57 0 20.57 3.43 17.14 3.43 13.71 3.43 13.71 0 10.29 0 10.29 3.43 6.86 3.43 6.86 0 3.43 0 0 0 0 3.43 3.43 3.43 3.43 6.86 6.86 6.86 10.29 6.86 10.29 10.29 10.29 13.71 6.86 13.71 3.43 13.71 3.43 17.14 6.86 17.14 10.29 17.14 10.29 20.57 6.86 20.57 3.43 20.57 3.43 24 6.86 24 10.29 24 10.29 27.43 10.29 30.86 13.71 30.86 13.71 27.43 17.14 27.43 17.14 24 17.14 20.57 17.14 17.14 17.14 13.71 17.14 10.29 17.14 6.86 20.57 6.86 24 6.86 24 10.29 24 13.71 24 17.14 20.57 17.14 20.57 20.57 24 20.57 24 24 24 27.43 24 30.86 24 34.29 20.57 34.29 20.57 37.71 24 37.71 24 41.14 27.43 41.14 30.86 41.14 30.86 37.71"/><rect class="cls-1" x="17.14" y="30.86" width="3.43" height="3.43"/><polygon class="cls-1" points="61.54 20.57 64.97 20.57 64.97 24 68.4 24 71.83 24 71.83 20.57 75.08 20.57 78.51 20.57 78.51 24 78.51 27.43 78.51 30.86 78.51 34.29 75.08 34.29 75.08 37.71 78.51 37.71 78.51 41.14 81.94 41.14 85.37 41.14 85.37 37.71 88.8 37.71 88.8 34.29 85.37 34.29 85.37 30.86 85.37 27.43 85.37 24 85.37 20.57 88.8 20.57 92.23 20.57 92.23 24 92.23 27.43 92.23 30.86 92.23 34.29 92.23 37.71 95.66 37.71 95.66 41.14 99.08 41.14 99.08 37.71 102.51 37.71 102.51 34.29 99.08 34.29 99.08 30.86 99.08 27.43 99.08 24 99.08 20.57 102.34 20.57 102.51 20.57 105.77 20.57 109.2 20.57 109.2 24 109.2 27.43 109.2 30.86 109.2 34.29 105.77 34.29 105.77 37.71 109.2 37.71 112.63 37.71 112.63 41.14 116.06 41.14 119.48 41.14 119.48 37.71 122.91 37.71 126.34 37.71 126.34 41.14 129.77 41.14 133.2 41.14 133.2 37.71 136.63 37.71 136.63 34.29 133.2 34.29 129.77 34.29 129.77 30.86 129.77 27.43 129.77 24 129.77 20.57 133.2 20.57 133.2 17.14 129.77 17.14 129.77 13.71 126.34 13.71 122.91 13.71 122.91 17.14 119.48 17.14 119.48 20.57 122.91 20.57 122.91 24 122.91 27.43 122.91 30.86 122.91 34.29 119.48 34.29 116.06 34.29 116.06 30.86 116.06 27.43 116.06 24 116.06 20.57 116.06 17.14 112.63 17.14 112.63 13.71 109.2 13.71 105.77 13.71 105.77 17.14 102.51 17.14 102.34 17.14 99.08 17.14 95.66 17.14 95.66 13.71 92.23 13.71 88.8 13.71 88.8 17.14 85.37 17.14 81.94 17.14 81.94 13.71 78.51 13.71 75.08 13.71 75.08 17.14 71.83 17.14 71.66 17.14 68.4 17.14 68.4 13.71 64.97 13.71 61.54 13.71 58.11 13.71 58.11 17.14 61.54 17.14 61.54 20.57"/><rect class="cls-1" x="30.54" y="78.71" width="3.43" height="3.43"/><polygon class="cls-1" points="44.25 65 44.25 68.43 47.68 68.43 47.68 71.86 47.68 75.29 44.25 75.29 40.83 75.29 40.83 71.86 44.25 71.86 44.25 68.43 40.83 68.43 40.83 65 40.83 61.57 44.25 61.57 47.68 61.57 51.11 61.57 51.11 58.14 47.68 58.14 47.68 54.71 44.25 54.71 40.83 54.71 40.83 58.14 37.4 58.14 37.4 61.57 33.97 61.57 33.97 65 33.97 68.43 33.97 71.86 37.4 71.86 37.4 75.29 33.97 75.29 33.97 78.71 37.4 78.71 40.83 78.71 40.83 82.14 44.25 82.14 47.68 82.14 47.68 78.71 51.11 78.71 51.11 75.29 54.54 75.29 54.54 71.86 54.54 68.43 51.11 68.43 51.11 65 47.68 65 44.25 65"/><polygon class="cls-1" points="133.05 75.29 129.62 75.29 126.2 75.29 126.2 71.86 126.2 68.43 126.2 65 126.2 61.57 129.62 61.57 129.62 58.14 126.2 58.14 126.2 54.71 122.77 54.71 119.34 54.71 119.34 58.14 115.91 58.14 115.91 61.57 119.34 61.57 119.34 65 119.34 68.43 119.34 71.86 119.34 75.29 115.91 75.29 112.48 75.29 112.48 71.86 112.48 68.43 112.48 65 112.48 61.57 112.48 58.14 109.05 58.14 109.05 54.71 105.62 54.71 102.2 54.71 102.2 58.14 98.94 58.14 98.77 58.14 95.51 58.14 92.08 58.14 92.08 54.71 88.65 54.71 85.23 54.71 85.23 58.14 81.8 58.14 78.37 58.14 78.37 54.71 74.94 54.71 71.51 54.71 71.51 58.14 68.08 58.14 64.65 58.14 64.65 54.71 61.23 54.71 57.8 54.71 57.8 58.14 54.54 58.14 54.54 54.71 54.54 51.29 51.11 51.29 51.11 54.71 51.11 58.14 54.37 58.14 54.37 61.57 51.11 61.57 51.11 65 54.54 65 54.54 61.57 57.8 61.57 61.23 61.57 61.23 65 61.23 68.43 61.23 71.86 61.23 75.29 57.8 75.29 57.8 78.71 61.23 78.71 61.23 82.14 64.65 82.14 68.08 82.14 68.08 78.71 71.51 78.71 71.51 75.29 68.08 75.29 68.08 71.86 68.08 68.43 68.08 65 68.08 61.57 71.51 61.57 74.94 61.57 74.94 65 74.94 68.43 74.94 71.86 74.94 75.29 74.94 78.71 78.37 78.71 78.37 82.14 81.8 82.14 81.8 78.71 85.23 78.71 85.23 75.29 81.8 75.29 81.8 71.86 81.8 68.43 81.8 65 81.8 61.57 85.23 61.57 88.65 61.57 88.65 65 88.65 68.43 88.65 71.86 88.65 75.29 88.65 78.71 92.08 78.71 92.08 82.14 95.51 82.14 95.51 78.71 98.94 78.71 98.94 75.29 95.51 75.29 95.51 71.86 95.51 68.43 95.51 65 95.51 61.57 98.77 61.57 98.94 61.57 102.2 61.57 105.62 61.57 105.62 65 105.62 68.43 105.62 71.86 105.62 75.29 102.2 75.29 102.2 78.71 105.62 78.71 109.05 78.71 109.05 82.14 112.48 82.14 115.91 82.14 115.91 78.71 119.34 78.71 122.77 78.71 122.77 82.14 126.2 82.14 129.62 82.14 129.62 78.71 132.88 78.71 132.88 82.14 136.31 82.14 136.31 78.71 133.05 78.71 133.05 75.29"/><polygon class="cls-1" points="150.02 58.14 150.02 54.71 146.6 54.71 143.17 54.71 139.74 54.71 136.31 54.71 136.31 58.14 132.88 58.14 132.88 61.57 132.88 65 136.31 65 136.31 61.57 139.74 61.57 143.17 61.57 146.6 61.57 150.02 61.57 150.02 65 153.45 65 153.45 61.57 156.88 61.57 156.88 58.14 153.45 58.14 150.02 58.14"/><rect class="cls-1" x="146.6" y="65" width="3.43" height="3.43"/><polygon class="cls-1" points="139.74 75.29 136.31 75.29 136.31 78.71 139.74 78.71 143.17 78.71 143.17 82.14 146.6 82.14 150.02 82.14 153.45 82.14 156.88 82.14 156.88 78.71 160.31 78.71 160.31 75.29 160.31 71.86 156.88 71.86 156.88 75.29 153.45 75.29 150.02 75.29 146.6 75.29 143.17 75.29 143.17 71.86 139.74 71.86 139.74 75.29"/><rect class="cls-1" x="143.17" y="68.43" width="3.43" height="3.43"/><polygon class="cls-1" points="187.57 68.43 187.57 65 187.57 61.57 191 61.57 191 58.14 187.57 58.14 184.14 58.14 184.14 54.71 180.71 54.71 177.28 54.71 177.28 58.14 173.85 58.14 170.42 58.14 170.42 54.71 166.99 54.71 163.57 54.71 163.57 58.14 160.31 58.14 160.31 54.71 156.88 54.71 156.88 58.14 160.14 58.14 160.14 61.57 163.57 61.57 166.99 61.57 166.99 65 166.99 68.43 166.99 71.86 166.99 75.29 163.57 75.29 163.57 78.71 166.99 78.71 166.99 82.14 170.42 82.14 173.85 82.14 173.85 78.71 177.28 78.71 177.28 75.29 173.85 75.29 173.85 71.86 173.85 68.43 173.85 65 173.85 61.57 177.28 61.57 180.71 61.57 180.71 65 180.71 68.43 180.71 71.86 180.71 75.29 180.71 78.71 184.14 78.71 184.14 82.14 187.57 82.14 187.57 78.71 191 78.71 191 75.29 187.57 75.29 187.57 71.86 187.57 68.43"/></g></svg>