<?xml version="1.0" encoding="UTF-8"?>
<svg id="Livello_2" data-name="Livello 2" xmlns="http://www.w3.org/2000/svg" version="1.1" viewBox="0 0 73.4 73.4">
  <defs>
    <style>
      .cls-1 {
        fill: #8781bc;
      }

      .cls-1, .cls-2 {
        stroke-width: 0px;
      }

      .cls-2 {
        fill: #fff;
      }
    </style>
  </defs>
  <circle class="cls-2" cx="36.6" cy="62.4" r="8.2"/>
  <path class="cls-1" d="M71.5,0H1.7C1,.5.2,1,0,1.9v69.6c.3,1,1,1.6,1.9,1.9h69.6c.9-.3,1.6-.9,1.9-1.9V1.9c-.3-1-1-1.6-1.9-1.9ZM36.7,68.9c-3.6,0-6.5-2.9-6.5-6.5s2.9-6.5,6.5-6.5,6.5,2.9,6.5,6.5-2.9,6.5-6.5,6.5ZM66.2,46.4c0,2.3-.8,3.1-3.1,3.1H10.4c-2.4,0-3.1-.8-3.1-3.2v-29c0-2.3.8-3.1,3.1-3.1h52.8c2.4,0,3.2.8,3.2,3.2v29Z"/>
</svg>