<?xml version="1.0" encoding="UTF-8"?>
<svg id="Livello_2" data-name="Livello 2" xmlns="http://www.w3.org/2000/svg" viewBox="0 0 569.78 307.78">
  <defs>
    <style>
      .cls-1 {
        fill: #fff;
        stroke-width: 0px;
      }
    </style>
  </defs>
  <g id="Livello_3" data-name="Livello 3">
    <g>
      <g>
        <path class="cls-1" d="M12.56,244.05C4.35,234.95.26,221.9.26,204.9v-12h31.2v14.4c0,13.6,5.7,20.4,17.1,20.4,5.6,0,9.85-1.65,12.75-4.95,2.9-3.3,4.35-8.65,4.35-16.05,0-8.8-2-16.55-6-23.25-4-6.7-11.4-14.75-22.2-24.15-13.6-12-23.1-22.85-28.5-32.55C3.56,117.05.86,106.1.86,93.9c0-16.6,4.2-29.45,12.6-38.55,8.4-9.1,20.6-13.65,36.6-13.65s27.75,4.55,35.85,13.65c8.1,9.1,12.15,22.15,12.15,39.15v8.7h-31.2v-10.8c0-7.2-1.4-12.45-4.2-15.75-2.8-3.3-6.9-4.95-12.3-4.95-11,0-16.5,6.7-16.5,20.1,0,7.6,2.05,14.7,6.15,21.3,4.1,6.6,11.55,14.6,22.35,24,13.8,12,23.3,22.9,28.5,32.7,5.2,9.8,7.8,21.3,7.8,34.5,0,17.2-4.25,30.4-12.75,39.6-8.5,9.2-20.85,13.8-37.05,13.8s-28.1-4.55-36.3-13.65Z"/>
        <path class="cls-1" d="M107.06,44.7h47.1l21,150.3h.6l21-150.3h47.1v210h-31.2V95.7h-.6l-24,159h-27.6l-24-159h-.6v159h-28.8V44.7Z"/>
        <path class="cls-1" d="M269.36,244.05c-8.4-9.1-12.6-22.15-12.6-39.15V44.7h33v162.6c0,7.2,1.45,12.4,4.35,15.6,2.9,3.2,7.05,4.8,12.45,4.8s9.55-1.6,12.45-4.8c2.9-3.2,4.35-8.4,4.35-15.6V44.7h31.8v160.2c0,17-4.2,30.05-12.6,39.15-8.4,9.1-20.6,13.65-36.6,13.65s-28.2-4.55-36.6-13.65ZM268.16,0h29.4v30.6h-29.4V0ZM314.36,0h29.4v30.6h-29.4V0Z"/>
        <path class="cls-1" d="M361.46,225.3l61.2-150.6h-58.2v-30h93.6v29.4l-61.2,150.6h61.2v30h-96.6v-29.4Z"/>
        <path class="cls-1" d="M466.16,44.7h41.4l32.1,125.7h.6V44.7h29.4v210h-33.9l-39.6-153.3h-.6v153.3h-29.4V44.7Z"/>
      </g>
      <g>
        <path class="cls-1" d="M0,281.15h11.25v3.75h-7.12v6.94h5.66v3.75h-5.66v8.06h7.12v3.75H0v-26.25Z"/>
        <path class="cls-1" d="M13.12,306.07c-1.03-1.14-1.54-2.77-1.54-4.89v-1.5h3.9v1.8c0,1.7.71,2.55,2.14,2.55.7,0,1.23-.21,1.59-.62s.54-1.08.54-2.01c0-1.1-.25-2.07-.75-2.91-.5-.84-1.42-1.84-2.77-3.02-1.7-1.5-2.89-2.86-3.56-4.07-.68-1.21-1.01-2.58-1.01-4.11,0-2.07.52-3.68,1.58-4.82,1.05-1.14,2.57-1.71,4.57-1.71s3.47.57,4.48,1.71c1.01,1.14,1.52,2.77,1.52,4.89v1.09h-3.9v-1.35c0-.9-.18-1.56-.52-1.97-.35-.41-.86-.62-1.54-.62-1.38,0-2.06.84-2.06,2.51,0,.95.26,1.84.77,2.66.51.83,1.44,1.83,2.79,3,1.73,1.5,2.91,2.86,3.56,4.09.65,1.23.98,2.66.98,4.31,0,2.15-.53,3.8-1.59,4.95-1.06,1.15-2.61,1.73-4.63,1.73s-3.51-.57-4.54-1.71Z"/>
        <path class="cls-1" d="M28.16,284.9h-4.31v-3.75h12.75v3.75h-4.31v22.5h-4.12v-22.5Z"/>
        <path class="cls-1" d="M40.46,281.15h5.59l4.27,26.25h-4.12l-.75-5.21v.07h-4.69l-.75,5.14h-3.82l4.27-26.25ZM44.96,298.7l-1.84-12.97h-.08l-1.8,12.97h3.71Z"/>
        <path class="cls-1" d="M51,281.15h6.23c2.12,0,3.67.49,4.65,1.48.98.99,1.46,2.51,1.46,4.56v1.05c0,1.35-.22,2.45-.66,3.3-.44.85-1.11,1.46-2.01,1.84v.07c2.05.7,3.08,2.53,3.08,5.48v2.25c0,2.02-.53,3.57-1.59,4.63-1.06,1.06-2.62,1.59-4.67,1.59h-6.49v-26.25ZM56.74,291.84c.83,0,1.44-.21,1.86-.64.41-.42.62-1.14.62-2.14v-1.46c0-.95-.17-1.64-.51-2.06-.34-.42-.87-.64-1.59-.64h-1.99v6.94h1.61ZM57.49,303.65c.73,0,1.26-.19,1.61-.58.35-.39.52-1.06.52-2.01v-2.29c0-1.2-.21-2.03-.62-2.49-.41-.46-1.09-.69-2.04-.69h-1.84v8.06h2.36Z"/>
        <path class="cls-1" d="M64.84,281.15h4.12v22.5h6.79v3.75h-10.91v-26.25Z"/>
        <path class="cls-1" d="M76.42,281.15h4.12v26.25h-4.12v-26.25Z"/>
        <path class="cls-1" d="M83.14,306.07c-1.03-1.14-1.54-2.77-1.54-4.89v-1.5h3.9v1.8c0,1.7.71,2.55,2.14,2.55.7,0,1.23-.21,1.59-.62s.54-1.08.54-2.01c0-1.1-.25-2.07-.75-2.91-.5-.84-1.42-1.84-2.77-3.02-1.7-1.5-2.89-2.86-3.56-4.07-.68-1.21-1.01-2.58-1.01-4.11,0-2.07.52-3.68,1.58-4.82,1.05-1.14,2.57-1.71,4.57-1.71s3.47.57,4.48,1.71c1.01,1.14,1.52,2.77,1.52,4.89v1.09h-3.9v-1.35c0-.9-.18-1.56-.52-1.97-.35-.41-.86-.62-1.54-.62-1.38,0-2.06.84-2.06,2.51,0,.95.26,1.84.77,2.66.51.83,1.44,1.83,2.79,3,1.73,1.5,2.91,2.86,3.56,4.09.65,1.23.98,2.66.98,4.31,0,2.15-.53,3.8-1.59,4.95-1.06,1.15-2.61,1.73-4.63,1.73s-3.51-.57-4.54-1.71Z"/>
        <path class="cls-1" d="M94.95,281.15h4.12v10.69h4.42v-10.69h4.12v26.25h-4.12v-11.81h-4.42v11.81h-4.12v-26.25Z"/>
        <path class="cls-1" d="M109.39,281.15h11.25v3.75h-7.12v6.94h5.66v3.75h-5.66v8.06h7.12v3.75h-11.25v-26.25Z"/>
        <path class="cls-1" d="M121.69,281.15h6.3c2.05,0,3.59.55,4.61,1.65,1.02,1.1,1.54,2.71,1.54,4.84v13.28c0,2.12-.51,3.74-1.54,4.84-1.03,1.1-2.56,1.65-4.61,1.65h-6.3v-26.25ZM127.91,303.65c.67,0,1.19-.2,1.56-.6.36-.4.54-1.05.54-1.95v-13.65c0-.9-.18-1.55-.54-1.95-.36-.4-.88-.6-1.56-.6h-2.1v18.75h2.1Z"/>
        <path class="cls-1" d="M140.29,281.15h4.12v26.25h-4.12v-26.25Z"/>
        <path class="cls-1" d="M146.17,281.15h5.17l4.01,15.71h.07v-15.71h3.68v26.25h-4.24l-4.95-19.16h-.08v19.16h-3.67v-26.25Z"/>
        <path class="cls-1" d="M165.49,304.55c0-1.88.3-3.48.9-4.82.6-1.34,1.67-2.82,3.23-4.44,1.52-1.62,2.58-3.01,3.17-4.16.59-1.15.88-2.35.88-3.6,0-1.12-.18-1.91-.54-2.34-.36-.44-.89-.66-1.59-.66-1.42,0-2.14.86-2.14,2.59v2.81h-3.9v-2.55c0-2.12.52-3.76,1.58-4.89,1.05-1.14,2.57-1.71,4.57-1.71s3.53.57,4.58,1.71c1.05,1.14,1.58,2.77,1.58,4.89,0,1.6-.38,3.16-1.14,4.69-.76,1.52-2.08,3.28-3.96,5.25-1.23,1.3-2.05,2.36-2.48,3.17-.43.81-.64,1.68-.64,2.61v.56h7.84v3.75h-11.93v-2.85Z"/>
        <path class="cls-1" d="M180.56,306.05c-1.08-1.15-1.61-2.77-1.61-4.88v-13.8c0-2.1.54-3.73,1.61-4.88,1.07-1.15,2.62-1.73,4.65-1.73s3.57.58,4.65,1.73c1.07,1.15,1.61,2.77,1.61,4.88v13.8c0,2.1-.54,3.73-1.61,4.88-1.08,1.15-2.62,1.73-4.65,1.73s-3.58-.57-4.65-1.73ZM187.35,301.44v-14.33c0-1.73-.71-2.59-2.14-2.59s-2.14.86-2.14,2.59v14.33c0,1.73.71,2.59,2.14,2.59s2.14-.86,2.14-2.59Z"/>
        <path class="cls-1" d="M198.71,287.38h-4.31v-2.93c1.17,0,2.12-.1,2.83-.3.71-.2,1.28-.53,1.71-.99.42-.46.8-1.13,1.12-2.01h2.77v26.25h-4.12v-20.02Z"/>
        <path class="cls-1" d="M207.81,306.11c-1.11-1.11-1.67-2.72-1.67-4.82v-2.33c0-1.3.21-2.39.64-3.28.42-.89,1.11-1.58,2.06-2.08v-.08c-.88-.47-1.52-1.13-1.93-1.97-.41-.84-.62-1.91-.62-3.21v-1.09c0-2.1.54-3.71,1.63-4.82,1.09-1.11,2.64-1.67,4.67-1.67s3.58.56,4.67,1.67c1.09,1.11,1.63,2.72,1.63,4.82v1.09c0,2.5-.85,4.23-2.55,5.17v.08c.95.5,1.64,1.19,2.06,2.08.42.89.64,1.98.64,3.28v2.33c0,2.1-.56,3.71-1.67,4.82-1.11,1.11-2.71,1.67-4.78,1.67s-3.67-.56-4.78-1.67ZM214.91,301.06v-2.51c0-1.97-.78-2.96-2.33-2.96s-2.33.99-2.33,2.96v2.51c0,1.98.77,2.96,2.33,2.96s2.33-.99,2.33-2.96ZM214.76,289.21v-2.06c0-1.75-.73-2.62-2.17-2.62s-2.17.88-2.17,2.62v2.06c0,1.75.72,2.62,2.17,2.62s2.17-.88,2.17-2.62Z"/>
      </g>
      <g>
        <path class="cls-1" d="M440.07,306.07c-1.03-1.14-1.54-2.77-1.54-4.89v-1.5h3.9v1.8c0,1.7.71,2.55,2.14,2.55.7,0,1.23-.21,1.59-.62s.54-1.08.54-2.01c0-1.1-.25-2.07-.75-2.91-.5-.84-1.42-1.84-2.78-3.02-1.7-1.5-2.89-2.86-3.56-4.07-.67-1.21-1.01-2.58-1.01-4.11,0-2.07.53-3.68,1.58-4.82,1.05-1.14,2.58-1.71,4.58-1.71s3.47.57,4.48,1.71c1.01,1.14,1.52,2.77,1.52,4.89v1.09h-3.9v-1.35c0-.9-.17-1.56-.52-1.97-.35-.41-.86-.62-1.54-.62-1.38,0-2.06.84-2.06,2.51,0,.95.26,1.84.77,2.66.51.83,1.44,1.83,2.79,3,1.73,1.5,2.91,2.86,3.56,4.09.65,1.23.98,2.66.98,4.31,0,2.15-.53,3.8-1.59,4.95-1.06,1.15-2.61,1.73-4.63,1.73s-3.51-.57-4.54-1.71Z"/>
        <path class="cls-1" d="M455.1,284.9h-4.31v-3.75h12.75v3.75h-4.31v22.5h-4.12v-22.5Z"/>
        <path class="cls-1" d="M464.22,281.15h4.12v26.25h-4.12v-26.25Z"/>
        <path class="cls-1" d="M470.1,281.15h4.12v22.5h6.79v3.75h-10.91v-26.25Z"/>
        <path class="cls-1" d="M481.69,281.15h4.12v22.5h6.79v3.75h-10.91v-26.25Z"/>
        <path class="cls-1" d="M499.28,306.05c-1.08-1.15-1.61-2.77-1.61-4.88v-13.8c0-2.1.54-3.73,1.61-4.88,1.07-1.15,2.62-1.73,4.65-1.73s3.58.58,4.65,1.73c1.07,1.15,1.61,2.77,1.61,4.88v13.8c0,2.1-.54,3.73-1.61,4.88-1.08,1.15-2.62,1.73-4.65,1.73s-3.58-.57-4.65-1.73ZM506.07,301.44v-14.33c0-1.73-.71-2.59-2.14-2.59s-2.14.86-2.14,2.59v14.33c0,1.73.71,2.59,2.14,2.59s2.14-.86,2.14-2.59Z"/>
        <path class="cls-1" d="M511.65,281.15h5.17l4.01,15.71h.07v-15.71h3.68v26.25h-4.24l-4.95-19.16h-.08v19.16h-3.67v-26.25Z"/>
        <path class="cls-1" d="M526.35,281.15h4.12v22.5h6.79v3.75h-10.91v-26.25Z"/>
        <path class="cls-1" d="M537.94,281.15h4.12v26.25h-4.12v-26.25Z"/>
        <path class="cls-1" d="M543.83,281.15h5.17l4.01,15.71h.07v-15.71h3.68v26.25h-4.24l-4.95-19.16h-.08v19.16h-3.67v-26.25Z"/>
        <path class="cls-1" d="M558.53,281.15h11.25v3.75h-7.12v6.94h5.66v3.75h-5.66v8.06h7.12v3.75h-11.25v-26.25Z"/>
      </g>
    </g>
  </g>
</svg>