<?xml version="1.0" encoding="UTF-8"?>
<svg id="Livello_2" data-name="Livello 2" xmlns="http://www.w3.org/2000/svg" version="1.1" viewBox="0 0 569.8 227.7">
  <defs>
    <style>
      .cls-1 {
        fill: none;
      }

      .cls-1, .cls-2 {
        stroke-width: 0px;
      }

      .cls-2 {
        fill: #fff;
      }
    </style>
  </defs>
  <polygon class="cls-1" points="212.1 95.7 192.1 227.7 212.7 227.7 212.7 95.7 212.1 95.7"/>
  <polygon class="cls-1" points="135.9 95.7 135.9 227.7 156.4 227.7 136.5 95.7 135.9 95.7"/>
  <polygon class="cls-1" points="495.6 101.4 495.6 227.7 528.8 227.7 496.2 101.4 495.6 101.4"/>
  <path class="cls-2" d="M98.7,204.3c0-13.2-2.6-24.7-7.8-34.5-5.2-9.8-14.7-20.7-28.5-32.7-10.8-9.4-18.2-17.4-22.3-24-4.1-6.6-6.2-13.7-6.2-21.3,0-13.4,5.5-20.1,16.5-20.1s9.5,1.7,12.3,5c2.8,3.3,4.2,8.5,4.2,15.8v10.8h31.2v-8.7c0-17-4-30.1-12.2-39.2-8.1-9.1-19.8-13.7-35.8-13.7s-28.2,4.5-36.6,13.7C5.1,64.5.9,77.3.9,93.9s2.7,23.2,8.1,32.8c5.4,9.7,14.9,20.5,28.5,32.5,10.8,9.4,18.2,17.5,22.2,24.2s6,14.5,6,23.2-1.5,12.8-4.4,16c-2.9,3.3-7.2,5-12.8,5-11.4,0-17.1-6.8-17.1-20.4v-14.4H.3v12c0,8.6,1.1,16.2,3.2,22.8h91.8c2.3-6.7,3.4-14.5,3.4-23.4Z"/>
  <polygon class="cls-2" points="135.9 95.7 136.5 95.7 156.4 227.7 192.1 227.7 212.1 95.7 212.7 95.7 212.7 227.7 243.9 227.7 243.9 44.7 196.8 44.7 175.8 195 175.2 195 154.2 44.7 107.1 44.7 107.1 227.7 135.9 227.7 135.9 95.7"/>
  <path class="cls-2" d="M355.2,204.9V44.7h-31.8v162.6c0,7.2-1.5,12.4-4.4,15.6s-7,4.8-12.5,4.8-9.5-1.6-12.5-4.8c-2.9-3.2-4.3-8.4-4.3-15.6V44.7h-33v160.2c0,8.6,1.1,16.2,3.2,22.8h91.9c2.2-6.6,3.2-14.2,3.2-22.8Z"/>
  <rect class="cls-2" x="314.4" width="29.4" height="30.6"/>
  <rect class="cls-2" x="268.2" width="29.4" height="30.6"/>
  <polygon class="cls-2" points="458.1 224.7 396.9 224.7 458.1 74.1 458.1 44.7 364.5 44.7 364.5 74.7 422.7 74.7 361.5 225.3 361.5 227.7 458.1 227.7 458.1 224.7"/>
  <polygon class="cls-2" points="495.6 101.4 496.2 101.4 528.8 227.7 569.7 227.7 569.7 44.7 540.3 44.7 540.3 170.4 539.7 170.4 507.6 44.7 466.2 44.7 466.2 44.7 466.2 227.7 495.6 227.7 495.6 101.4"/>
</svg>